<svg width="875" height="135" viewBox="0 0 875 135" fill="none" xmlns="http://www.w3.org/2000/svg">
<path d="M41.544 134.152C34.44 134.152 28.488 133.72 23.688 132.856C18.888 131.896 14.952 130.312 11.88 128.104C8.904 125.896 6.6 122.92 4.968 119.176C3.432 115.336 2.376 110.488 1.8 104.632C1.224 98.776 0.936001 91.72 0.936001 83.464C0.936001 75.208 1.224 68.152 1.8 62.296C2.376 56.44 3.432 51.64 4.968 47.896C6.6 44.056 8.904 41.032 11.88 38.824C14.952 36.616 18.888 35.08 23.688 34.216C28.488 33.256 34.44 32.776 41.544 32.776C44.328 32.776 47.16 32.872 50.04 33.064C53.016 33.256 55.848 33.544 58.536 33.928C61.224 34.216 63.528 34.6 65.448 35.08V48.04C63.048 47.752 60.648 47.512 58.248 47.32C55.944 47.032 53.688 46.84 51.48 46.744C49.272 46.648 47.352 46.6 45.72 46.6C40.44 46.6 36.072 46.792 32.616 47.176C29.16 47.56 26.376 48.424 24.264 49.768C22.248 51.112 20.712 53.128 19.656 55.816C18.696 58.408 18.024 61.96 17.64 66.472C17.352 70.984 17.208 76.648 17.208 83.464C17.208 90.184 17.352 95.848 17.64 100.456C18.024 104.968 18.696 108.568 19.656 111.256C20.712 113.848 22.248 115.816 24.264 117.16C26.376 118.504 29.16 119.368 32.616 119.752C36.072 120.136 40.44 120.328 45.72 120.328C48.888 120.328 52.344 120.184 56.088 119.896C59.928 119.608 63.24 119.272 66.024 118.888V132.136C63.912 132.52 61.416 132.856 58.536 133.144C55.752 133.432 52.872 133.672 49.896 133.864C47.016 134.056 44.232 134.152 41.544 134.152ZM124.667 134.152C116.795 134.152 110.315 133.72 105.227 132.856C100.139 131.896 96.1069 130.312 93.1309 128.104C90.1549 125.896 87.9949 122.872 86.6509 119.032C85.3069 115.192 84.4429 110.392 84.0589 104.632C83.6749 98.776 83.4829 91.72 83.4829 83.464C83.4829 75.208 83.6749 68.2 84.0589 62.44C84.4429 56.584 85.3069 51.736 86.6509 47.896C87.9949 44.056 90.1549 41.032 93.1309 38.824C96.1069 36.616 100.139 35.08 105.227 34.216C110.315 33.256 116.795 32.776 124.667 32.776C132.539 32.776 139.019 33.256 144.107 34.216C149.291 35.08 153.371 36.616 156.347 38.824C159.323 41.032 161.483 44.056 162.827 47.896C164.267 51.736 165.179 56.584 165.563 62.44C165.947 68.2 166.139 75.208 166.139 83.464C166.139 91.72 165.947 98.776 165.563 104.632C165.179 110.392 164.267 115.192 162.827 119.032C161.483 122.872 159.323 125.896 156.347 128.104C153.371 130.312 149.291 131.896 144.107 132.856C139.019 133.72 132.539 134.152 124.667 134.152ZM124.667 120.328C129.467 120.328 133.403 120.184 136.475 119.896C139.643 119.608 142.091 118.888 143.819 117.736C145.643 116.584 146.987 114.712 147.851 112.12C148.715 109.432 149.243 105.832 149.435 101.32C149.723 96.712 149.867 90.76 149.867 83.464C149.867 76.168 149.723 70.264 149.435 65.752C149.243 61.144 148.715 57.544 147.851 54.952C146.987 52.264 145.643 50.344 143.819 49.192C142.091 48.04 139.643 47.32 136.475 47.032C133.403 46.744 129.467 46.6 124.667 46.6C119.963 46.6 116.075 46.744 113.003 47.032C109.931 47.32 107.483 48.04 105.659 49.192C103.835 50.344 102.491 52.264 101.627 54.952C100.859 57.544 100.331 61.144 100.043 65.752C99.8509 70.264 99.7549 76.168 99.7549 83.464C99.7549 90.76 99.8509 96.712 100.043 101.32C100.331 105.832 100.859 109.432 101.627 112.12C102.491 114.712 103.835 116.584 105.659 117.736C107.483 118.888 109.931 119.608 113.003 119.896C116.075 120.184 119.963 120.328 124.667 120.328ZM189.311 133V33.928H221.711C230.063 33.928 236.879 34.36 242.159 35.224C247.535 35.992 251.759 37.432 254.831 39.544C257.903 41.656 260.111 44.584 261.455 48.328C262.895 52.072 263.807 56.824 264.191 62.584C264.575 68.344 264.767 75.304 264.767 83.464C264.767 91.624 264.575 98.584 264.191 104.344C263.807 110.104 262.895 114.856 261.455 118.6C260.111 122.344 257.903 125.272 254.831 127.384C251.759 129.496 247.535 130.984 242.159 131.848C236.879 132.616 230.063 133 221.711 133H189.311ZM205.583 119.176H220.271C225.647 119.176 230.063 119.08 233.519 118.888C237.071 118.6 239.855 117.928 241.871 116.872C243.887 115.72 245.375 113.896 246.335 111.4C247.295 108.904 247.871 105.4 248.062 100.888C248.351 96.28 248.495 90.472 248.495 83.464C248.495 76.456 248.351 70.696 248.062 66.184C247.871 61.672 247.247 58.168 246.191 55.672C245.231 53.08 243.695 51.256 241.583 50.2C239.567 49.048 236.831 48.376 233.375 48.184C229.919 47.896 225.551 47.752 220.271 47.752H205.583V119.176ZM288.029 133V33.928H353.981V47.752H304.301V76.12H347.213V89.944H304.301V119.176H353.981V133H288.029ZM378.669 133V33.928H383.853V128.104H434.253V133H378.669ZM445.073 133L485.969 33.928H491.009L531.905 133H526.289L513.185 101.032H463.649L450.545 133H445.073ZM465.665 96.136H511.169L488.849 41.272H488.129L465.665 96.136ZM469.841 19.96V19.24L485.249 0.0879946H491.873L507.281 19.24V19.96H503.393L488.561 4.40799L473.729 19.96H469.841ZM554.169 133V33.928H559.209L621.705 123.496H622.281V33.928H627.321V133H622.281L559.785 43.432H559.209V133H554.169ZM660.482 133V33.928H690.002C697.682 33.928 704.018 34.264 709.01 34.936C714.002 35.512 717.938 36.76 720.818 38.68C723.794 40.6 726.002 43.384 727.442 47.032C728.882 50.68 729.794 55.48 730.178 61.432C730.562 67.288 730.754 74.632 730.754 83.464C730.754 92.296 730.562 99.688 730.178 105.64C729.794 111.496 728.882 116.248 727.442 119.896C726.002 123.544 723.794 126.328 720.818 128.248C717.938 130.168 714.002 131.464 709.01 132.136C704.018 132.712 697.682 133 690.002 133H660.482ZM665.666 128.104H687.122C694.418 128.104 700.418 127.96 705.122 127.672C709.922 127.288 713.666 126.424 716.354 125.08C719.138 123.64 721.154 121.336 722.402 118.168C723.746 115 724.61 110.632 724.994 105.064C725.378 99.4 725.57 92.2 725.57 83.464C725.57 74.728 725.378 67.576 724.994 62.008C724.61 56.344 723.746 51.928 722.402 48.76C721.058 45.592 718.994 43.336 716.21 41.992C713.426 40.552 709.682 39.688 704.978 39.4C700.274 39.016 694.322 38.824 687.122 38.824H665.666V128.104ZM760.326 133V33.928H765.51V133H760.326ZM787.776 133L828.672 33.928H833.712L874.608 133H868.992L855.888 101.032H806.352L793.248 133H787.776ZM808.368 96.136H853.872L831.552 41.272H830.832L808.368 96.136Z" fill="white"/>
</svg>
